<svg width="1755" height="861" viewBox="0 0 1755 861" fill="none" xmlns="http://www.w3.org/2000/svg">
<rect width="1755" height="861" fill="white"/>
<path d="M43.68 282.2H49.872C51.456 282.2 52.776 282.728 53.832 283.784C54.912 284.84 55.44 286.16 55.44 287.72C55.44 289.28 54.912 290.576 53.832 291.656C52.776 292.712 51.456 293.24 49.872 293.24H46.44V299H43.68V282.2ZM46.44 290.648H49.872C51.504 290.648 52.68 289.424 52.68 287.72C52.68 286.016 51.504 284.792 49.872 284.792H46.44V290.648ZM60.0259 287V289.016C60.6739 287.528 61.9219 286.784 63.7219 286.784V289.592C62.7379 289.52 61.8739 289.76 61.1299 290.312C60.3859 290.84 60.0259 291.728 60.0259 292.952V299H57.4339V287H60.0259ZM68.061 285.128C67.413 285.752 66.453 285.752 65.781 285.128C65.157 284.456 65.157 283.496 65.781 282.848C66.429 282.2 67.437 282.2 68.085 282.848C68.709 283.496 68.709 284.456 68.061 285.128ZM68.229 299H65.637V287H68.229V299ZM84.3426 286.688C87.0546 286.688 88.8786 288.584 88.8786 291.56V299H86.2866V291.728C86.2866 290.072 85.3986 289.112 83.9586 289.112C82.3506 289.112 81.3426 290.168 81.3426 292.28V299H78.7506V291.728C78.7506 290.072 77.9346 289.112 76.4946 289.112C74.9346 289.112 73.8306 290.192 73.8306 292.28V299H71.2386V287H73.8306V288.44C74.5986 287.264 75.7506 286.688 77.2626 286.688C78.7986 286.688 79.9266 287.312 80.6706 288.584C81.4626 287.312 82.6866 286.688 84.3426 286.688ZM101.157 288.704V287H103.749V299H101.157V297.272C100.173 298.64 98.7806 299.312 96.9566 299.312C95.3006 299.312 93.9086 298.712 92.7326 297.488C91.5566 296.264 90.9806 294.752 90.9806 293C90.9806 291.224 91.5566 289.736 92.7326 288.512C93.9086 287.288 95.3006 286.688 96.9566 286.688C98.7806 286.688 100.173 287.36 101.157 288.704ZM94.6526 295.76C95.3726 296.48 96.2846 296.84 97.3646 296.84C98.4446 296.84 99.3566 296.48 100.077 295.76C100.797 295.016 101.157 294.104 101.157 293C101.157 291.896 100.797 290.984 100.077 290.264C99.3566 289.52 98.4446 289.16 97.3646 289.16C96.2846 289.16 95.3726 289.52 94.6526 290.264C93.9326 290.984 93.5726 291.896 93.5726 293C93.5726 294.104 93.9326 295.016 94.6526 295.76ZM109.362 287V289.016C110.01 287.528 111.258 286.784 113.058 286.784V289.592C112.074 289.52 111.21 289.76 110.466 290.312C109.722 290.84 109.362 291.728 109.362 292.952V299H106.77V287H109.362ZM120.223 295.712L123.295 287H126.055L121.447 299.384C120.295 302.48 118.351 303.968 115.591 303.8V301.376C117.223 301.472 118.135 300.68 118.783 299.024L118.903 298.784L113.815 287H116.647L120.223 295.712Z" fill="black"/>
<path d="M49.272 629.312C46.032 629.312 43.68 627.752 42.792 625.184L45.168 623.792C45.84 625.688 47.232 626.624 49.344 626.624C51.432 626.624 52.464 625.736 52.464 624.416C52.464 623.72 52.176 623.216 51.624 622.856C51.072 622.496 50.064 622.088 48.648 621.656C47.04 621.176 46.248 620.864 45.12 620.12C44.04 619.352 43.488 618.248 43.488 616.736C43.488 615.248 44.016 614.072 45.072 613.208C46.128 612.32 47.4 611.888 48.888 611.888C51.576 611.888 53.664 613.28 54.744 615.584L52.416 616.928C51.72 615.368 50.544 614.576 48.888 614.576C47.28 614.576 46.248 615.392 46.248 616.664C46.248 617.912 47.064 618.488 49.632 619.28C50.28 619.496 50.736 619.64 51.024 619.76C51.336 619.856 51.744 620.024 52.272 620.24C52.824 620.456 53.232 620.696 53.496 620.912C54.384 621.608 55.344 622.76 55.224 624.368C55.224 625.88 54.672 627.104 53.568 627.992C52.488 628.88 51.048 629.312 49.272 629.312ZM69.0493 624.104H59.4973C59.8813 625.928 61.3453 626.936 63.3373 626.936C64.7053 626.936 65.7373 626.432 66.4333 625.448L68.5693 626.696C67.3933 628.448 65.6413 629.312 63.3133 629.312C61.3693 629.312 59.7853 628.712 58.5853 627.536C57.3853 626.336 56.7853 624.824 56.7853 623C56.7853 621.2 57.3853 619.712 58.5613 618.512C59.7373 617.288 61.2733 616.688 63.1213 616.688C64.8733 616.688 66.3133 617.312 67.4413 618.536C68.5693 619.76 69.1453 621.272 69.1453 623.024C69.1453 623.288 69.1213 623.648 69.0493 624.104ZM59.4733 621.992H66.5293C66.1693 620.048 64.8013 619.04 63.0973 619.04C61.1773 619.04 59.8333 620.168 59.4733 621.992ZM84.5301 616.688C87.2421 616.688 89.0661 618.584 89.0661 621.56V629H86.4741V621.728C86.4741 620.072 85.5861 619.112 84.1461 619.112C82.5381 619.112 81.5301 620.168 81.5301 622.28V629H78.9381V621.728C78.9381 620.072 78.1221 619.112 76.6821 619.112C75.1221 619.112 74.0181 620.192 74.0181 622.28V629H71.4261V617H74.0181V618.44C74.7861 617.264 75.9381 616.688 77.4501 616.688C78.9861 616.688 80.1141 617.312 80.8581 618.584C81.6501 617.312 82.8741 616.688 84.5301 616.688ZM101.344 618.704V617H103.936V629H101.344V627.272C100.36 628.64 98.9681 629.312 97.1441 629.312C95.4881 629.312 94.0961 628.712 92.9201 627.488C91.7441 626.264 91.1681 624.752 91.1681 623C91.1681 621.224 91.7441 619.736 92.9201 618.512C94.0961 617.288 95.4881 616.688 97.1441 616.688C98.9681 616.688 100.36 617.36 101.344 618.704ZM94.8401 625.76C95.5601 626.48 96.4721 626.84 97.5521 626.84C98.6321 626.84 99.5441 626.48 100.264 625.76C100.984 625.016 101.344 624.104 101.344 623C101.344 621.896 100.984 620.984 100.264 620.264C99.5441 619.52 98.6321 619.16 97.5521 619.16C96.4721 619.16 95.5601 619.52 94.8401 620.264C94.1201 620.984 93.7601 621.896 93.7601 623C93.7601 624.104 94.1201 625.016 94.8401 625.76ZM113.653 617V619.496H110.677V625.256C110.677 626.792 111.685 626.768 113.653 626.672V629C109.693 629.48 108.085 628.4 108.085 625.256V619.496H105.877V617H108.085V614.408L110.677 613.64V617H113.653ZM118.545 615.128C117.897 615.752 116.937 615.752 116.265 615.128C115.641 614.456 115.641 613.496 116.265 612.848C116.913 612.2 117.921 612.2 118.569 612.848C119.193 613.496 119.193 614.456 118.545 615.128ZM118.713 629H116.121V617H118.713V629ZM127.387 629.312C125.587 629.312 124.075 628.712 122.851 627.488C121.651 626.264 121.051 624.776 121.051 623C121.051 621.2 121.651 619.712 122.851 618.512C124.075 617.288 125.587 616.688 127.387 616.688C129.715 616.688 131.779 617.888 132.739 619.784L130.507 621.08C129.955 619.928 128.803 619.232 127.363 619.232C126.307 619.232 125.419 619.592 124.699 620.312C124.003 621.032 123.643 621.92 123.643 623C123.643 624.08 124.003 624.968 124.699 625.688C125.419 626.408 126.307 626.768 127.363 626.768C128.779 626.768 129.979 626.048 130.555 624.92L132.787 626.192C131.755 628.112 129.715 629.312 127.387 629.312Z" fill="black"/>
<path d="M827.76 293.6V282.2H830.52V299H828.36L820.44 287.6V299H817.68V282.2H819.84L827.76 293.6ZM845.299 294.104H835.747C836.131 295.928 837.595 296.936 839.587 296.936C840.955 296.936 841.987 296.432 842.683 295.448L844.819 296.696C843.643 298.448 841.891 299.312 839.563 299.312C837.619 299.312 836.035 298.712 834.835 297.536C833.635 296.336 833.035 294.824 833.035 293C833.035 291.2 833.635 289.712 834.811 288.512C835.987 287.288 837.523 286.688 839.371 286.688C841.123 286.688 842.563 287.312 843.691 288.536C844.819 289.76 845.395 291.272 845.395 293.024C845.395 293.288 845.371 293.648 845.299 294.104ZM835.723 291.992H842.779C842.419 290.048 841.051 289.04 839.347 289.04C837.427 289.04 836.083 290.168 835.723 291.992ZM855.764 293.432V287H858.356V299H855.764V297.464C854.972 298.688 853.748 299.312 852.044 299.312C849.284 299.312 847.436 297.44 847.436 294.368V287H850.028V294.104C850.028 295.904 851.06 296.888 852.716 296.888C854.54 296.888 855.764 295.76 855.764 293.432ZM868.083 287V289.496H865.107V295.256C865.107 296.792 866.115 296.768 868.083 296.672V299C864.123 299.48 862.515 298.4 862.515 295.256V289.496H860.307V287H862.515V284.408L865.107 283.64V287H868.083ZM873.143 287V289.016C873.791 287.528 875.039 286.784 876.839 286.784V289.592C875.855 289.52 874.991 289.76 874.247 290.312C873.503 290.84 873.143 291.728 873.143 292.952V299H870.551V287H873.143ZM887.696 288.704V287H890.288V299H887.696V297.272C886.712 298.64 885.32 299.312 883.496 299.312C881.84 299.312 880.448 298.712 879.272 297.488C878.096 296.264 877.52 294.752 877.52 293C877.52 291.224 878.096 289.736 879.272 288.512C880.448 287.288 881.84 286.688 883.496 286.688C885.32 286.688 886.712 287.36 887.696 288.704ZM881.192 295.76C881.912 296.48 882.824 296.84 883.904 296.84C884.984 296.84 885.896 296.48 886.616 295.76C887.336 295.016 887.696 294.104 887.696 293C887.696 291.896 887.336 290.984 886.616 290.264C885.896 289.52 884.984 289.16 883.904 289.16C882.824 289.16 881.912 289.52 881.192 290.264C880.472 290.984 880.112 291.896 880.112 293C880.112 294.104 880.472 295.016 881.192 295.76ZM895.901 299H893.309V281.48H895.901V299Z" fill="black"/>
<rect x="41" y="337" width="136" height="136" fill="#D9D9D9"/>
<rect x="196" y="337" width="136" height="136" fill="#D9D9D9"/>
<rect x="41" y="337" width="136" height="136" fill="#0D5BB5"/>
<path d="M50.252 496.452C49.406 497.64 48.2 498.234 46.67 498.234C45.14 498.234 43.934 497.64 43.088 496.452C42.242 495.264 41.81 493.68 41.81 491.7C41.81 489.72 42.242 488.136 43.088 486.948C43.934 485.76 45.14 485.166 46.67 485.166C48.2 485.166 49.406 485.76 50.252 486.948C51.098 488.136 51.53 489.72 51.53 491.7C51.53 493.68 51.098 495.264 50.252 496.452ZM43.484 491.7C43.484 494.814 44.636 496.596 46.67 496.596C48.704 496.596 49.874 494.814 49.874 491.7C49.874 488.586 48.704 486.786 46.67 486.786C44.636 486.786 43.484 488.55 43.484 491.7ZM53.6879 485.4H58.6019C60.3119 485.4 61.7339 486.012 62.8679 487.236C64.0019 488.442 64.5779 489.936 64.5779 491.7C64.5779 493.464 64.0019 494.958 62.8679 496.182C61.7339 497.388 60.3119 498 58.6019 498H53.6879V485.4ZM55.3619 496.416H58.6019C59.8799 496.416 60.9419 495.966 61.7519 495.066C62.5619 494.166 62.9759 493.05 62.9759 491.7C62.9759 490.35 62.5619 489.234 61.7519 488.334C60.9419 487.434 59.8799 486.984 58.6019 486.984H55.3619V496.416ZM68.106 490.314H69.942C71.13 490.314 72.138 490.674 72.948 491.376C73.776 492.078 74.19 493.032 74.19 494.274C74.19 495.498 73.776 496.47 72.93 497.172C72.084 497.874 71.076 498.234 69.87 498.234C67.944 498.234 66.306 497.28 65.712 495.534L67.134 494.724C67.476 495.948 68.484 496.596 69.87 496.596C71.454 496.596 72.534 495.732 72.534 494.274C72.534 492.816 71.436 491.934 69.906 491.934H66.342L66.81 485.4H73.704V486.966H68.322L68.106 490.314ZM83.4055 491.466C84.5575 492.024 85.2955 493.086 85.2955 494.436C85.2955 495.444 84.9355 496.29 84.2335 496.974C83.5315 497.658 82.6675 498 81.6415 498H76.2055V485.4H81.2455C82.2355 485.4 83.0635 485.724 83.7475 486.39C84.4315 487.056 84.7735 487.866 84.7735 488.838C84.7735 489.954 84.3235 490.836 83.4055 491.466ZM81.2455 486.966H77.8795V490.818H81.2455C82.3075 490.818 83.1175 489.972 83.1175 488.892C83.1175 488.37 82.9375 487.92 82.5595 487.542C82.1995 487.164 81.7675 486.966 81.2455 486.966ZM77.8795 496.434H81.6415C82.7755 496.434 83.6395 495.534 83.6395 494.382C83.6395 493.824 83.4415 493.338 83.0455 492.942C82.6675 492.546 82.1995 492.348 81.6415 492.348H77.8795V496.434ZM94.4797 491.466C95.6317 492.024 96.3697 493.086 96.3697 494.436C96.3697 495.444 96.0097 496.29 95.3077 496.974C94.6057 497.658 93.7417 498 92.7157 498H87.2797V485.4H92.3197C93.3097 485.4 94.1377 485.724 94.8217 486.39C95.5057 487.056 95.8477 487.866 95.8477 488.838C95.8477 489.954 95.3977 490.836 94.4797 491.466ZM92.3197 486.966H88.9537V490.818H92.3197C93.3817 490.818 94.1917 489.972 94.1917 488.892C94.1917 488.37 94.0117 487.92 93.6337 487.542C93.2737 487.164 92.8417 486.966 92.3197 486.966ZM88.9537 496.434H92.7157C93.8497 496.434 94.7137 495.534 94.7137 494.382C94.7137 493.824 94.5157 493.338 94.1197 492.942C93.7417 492.546 93.2737 492.348 92.7157 492.348H88.9537V496.434ZM100.028 490.314H101.864C103.052 490.314 104.06 490.674 104.87 491.376C105.698 492.078 106.112 493.032 106.112 494.274C106.112 495.498 105.698 496.47 104.852 497.172C104.006 497.874 102.998 498.234 101.792 498.234C99.8659 498.234 98.2279 497.28 97.6339 495.534L99.0559 494.724C99.3979 495.948 100.406 496.596 101.792 496.596C103.376 496.596 104.456 495.732 104.456 494.274C104.456 492.816 103.358 491.934 101.828 491.934H98.2639L98.7319 485.4H105.626V486.966H100.244L100.028 490.314Z" fill="black"/>
<path d="M196.252 486.552L199.564 485.4H201.004V498H199.348V487.2L196.666 487.992L196.252 486.552ZM213.846 498H212.064L211.038 495.174H205.368L204.342 498H202.56L207.258 485.4H209.148L213.846 498ZM208.194 487.398L205.944 493.608H210.462L208.194 487.398ZM222.442 489.396C222.442 490.368 222.19 491.214 221.668 491.934H221.686L217.618 498H215.728L218.716 493.59C218.446 493.608 218.248 493.626 218.104 493.626C216.826 493.626 215.782 493.23 214.972 492.456C214.162 491.664 213.766 490.638 213.766 489.396C213.766 488.154 214.162 487.128 214.972 486.354C215.782 485.562 216.826 485.166 218.104 485.166C219.382 485.166 220.408 485.562 221.218 486.354C222.028 487.128 222.442 488.154 222.442 489.396ZM218.104 486.768C216.52 486.768 215.422 487.812 215.422 489.396C215.422 490.98 216.52 492.042 218.104 492.042C219.688 492.042 220.786 490.98 220.786 489.396C220.786 487.812 219.706 486.768 218.104 486.768ZM231.128 494.04H232.658V495.606H231.128V498H229.454V495.606H223.028V494.04L227.546 485.4H229.346L224.828 494.04H229.454V490.476H231.128V494.04ZM241.641 485.4V486.984H236.061V491.07H241.407V492.654H236.061V498H234.387V485.4H241.641ZM250.922 485.4V486.984H245.342V491.07H250.688V492.654H245.342V498H243.668V485.4H250.922Z" fill="black"/>
<path d="M820.252 496.452C819.406 497.64 818.2 498.234 816.67 498.234C815.14 498.234 813.934 497.64 813.088 496.452C812.242 495.264 811.81 493.68 811.81 491.7C811.81 489.72 812.242 488.136 813.088 486.948C813.934 485.76 815.14 485.166 816.67 485.166C818.2 485.166 819.406 485.76 820.252 486.948C821.098 488.136 821.53 489.72 821.53 491.7C821.53 493.68 821.098 495.264 820.252 496.452ZM813.484 491.7C813.484 494.814 814.636 496.596 816.67 496.596C818.704 496.596 819.874 494.814 819.874 491.7C819.874 488.586 818.704 486.786 816.67 486.786C814.636 486.786 813.484 488.55 813.484 491.7ZM831.59 496.452C830.744 497.64 829.538 498.234 828.008 498.234C826.478 498.234 825.272 497.64 824.426 496.452C823.58 495.264 823.148 493.68 823.148 491.7C823.148 489.72 823.58 488.136 824.426 486.948C825.272 485.76 826.478 485.166 828.008 485.166C829.538 485.166 830.744 485.76 831.59 486.948C832.436 488.136 832.868 489.72 832.868 491.7C832.868 493.68 832.436 495.264 831.59 496.452ZM824.822 491.7C824.822 494.814 825.974 496.596 828.008 496.596C830.042 496.596 831.212 494.814 831.212 491.7C831.212 488.586 830.042 486.786 828.008 486.786C825.974 486.786 824.822 488.55 824.822 491.7ZM842.928 496.452C842.082 497.64 840.876 498.234 839.346 498.234C837.816 498.234 836.61 497.64 835.764 496.452C834.918 495.264 834.486 493.68 834.486 491.7C834.486 489.72 834.918 488.136 835.764 486.948C836.61 485.76 837.816 485.166 839.346 485.166C840.876 485.166 842.082 485.76 842.928 486.948C843.774 488.136 844.206 489.72 844.206 491.7C844.206 493.68 843.774 495.264 842.928 496.452ZM836.16 491.7C836.16 494.814 837.312 496.596 839.346 496.596C841.38 496.596 842.55 494.814 842.55 491.7C842.55 488.586 841.38 486.786 839.346 486.786C837.312 486.786 836.16 488.55 836.16 491.7ZM854.266 496.452C853.42 497.64 852.214 498.234 850.684 498.234C849.154 498.234 847.948 497.64 847.102 496.452C846.256 495.264 845.824 493.68 845.824 491.7C845.824 489.72 846.256 488.136 847.102 486.948C847.948 485.76 849.154 485.166 850.684 485.166C852.214 485.166 853.42 485.76 854.266 486.948C855.112 488.136 855.544 489.72 855.544 491.7C855.544 493.68 855.112 495.264 854.266 496.452ZM847.498 491.7C847.498 494.814 848.65 496.596 850.684 496.596C852.718 496.596 853.888 494.814 853.888 491.7C853.888 488.586 852.718 486.786 850.684 486.786C848.65 486.786 847.498 488.55 847.498 491.7ZM865.604 496.452C864.758 497.64 863.552 498.234 862.022 498.234C860.492 498.234 859.286 497.64 858.44 496.452C857.594 495.264 857.162 493.68 857.162 491.7C857.162 489.72 857.594 488.136 858.44 486.948C859.286 485.76 860.492 485.166 862.022 485.166C863.552 485.166 864.758 485.76 865.604 486.948C866.45 488.136 866.882 489.72 866.882 491.7C866.882 493.68 866.45 495.264 865.604 496.452ZM858.836 491.7C858.836 494.814 859.988 496.596 862.022 496.596C864.056 496.596 865.226 494.814 865.226 491.7C865.226 488.586 864.056 486.786 862.022 486.786C859.988 486.786 858.836 488.55 858.836 491.7ZM876.941 496.452C876.095 497.64 874.889 498.234 873.359 498.234C871.829 498.234 870.623 497.64 869.777 496.452C868.931 495.264 868.499 493.68 868.499 491.7C868.499 489.72 868.931 488.136 869.777 486.948C870.623 485.76 871.829 485.166 873.359 485.166C874.889 485.166 876.095 485.76 876.941 486.948C877.787 488.136 878.219 489.72 878.219 491.7C878.219 493.68 877.787 495.264 876.941 496.452ZM870.173 491.7C870.173 494.814 871.325 496.596 873.359 496.596C875.393 496.596 876.563 494.814 876.563 491.7C876.563 488.586 875.393 486.786 873.359 486.786C871.325 486.786 870.173 488.55 870.173 491.7Z" fill="black"/>
<path d="M973.344 491.484C974.568 492.114 975.306 493.194 975.306 494.544C975.306 495.696 974.91 496.596 974.1 497.262C973.29 497.91 972.264 498.234 970.986 498.234C969.726 498.234 968.7 497.91 967.89 497.262C967.08 496.596 966.684 495.696 966.684 494.544C966.684 493.194 967.422 492.114 968.646 491.484C967.62 490.836 967.098 489.918 967.098 488.73C967.098 487.596 967.476 486.714 968.232 486.102C969.006 485.472 969.924 485.166 970.986 485.166C972.066 485.166 972.984 485.472 973.74 486.102C974.514 486.714 974.892 487.596 974.892 488.73C974.892 489.918 974.37 490.836 973.344 491.484ZM970.986 486.768C969.708 486.768 968.754 487.452 968.754 488.766C968.754 490.044 969.744 490.782 970.986 490.782C972.228 490.782 973.218 490.044 973.218 488.766C973.218 487.452 972.282 486.768 970.986 486.768ZM970.986 496.632C972.588 496.632 973.65 495.858 973.65 494.436C973.65 493.05 972.588 492.258 970.986 492.258C969.402 492.258 968.34 493.05 968.34 494.436C968.34 495.858 969.402 496.632 970.986 496.632ZM985.236 496.452C984.39 497.64 983.184 498.234 981.654 498.234C980.124 498.234 978.918 497.64 978.072 496.452C977.226 495.264 976.794 493.68 976.794 491.7C976.794 489.72 977.226 488.136 978.072 486.948C978.918 485.76 980.124 485.166 981.654 485.166C983.184 485.166 984.39 485.76 985.236 486.948C986.082 488.136 986.514 489.72 986.514 491.7C986.514 493.68 986.082 495.264 985.236 496.452ZM978.468 491.7C978.468 494.814 979.62 496.596 981.654 496.596C983.688 496.596 984.858 494.814 984.858 491.7C984.858 488.586 983.688 486.786 981.654 486.786C979.62 486.786 978.468 488.55 978.468 491.7ZM994.666 491.484C995.89 492.114 996.628 493.194 996.628 494.544C996.628 495.696 996.232 496.596 995.422 497.262C994.612 497.91 993.586 498.234 992.308 498.234C991.048 498.234 990.022 497.91 989.212 497.262C988.402 496.596 988.006 495.696 988.006 494.544C988.006 493.194 988.744 492.114 989.968 491.484C988.942 490.836 988.42 489.918 988.42 488.73C988.42 487.596 988.798 486.714 989.554 486.102C990.328 485.472 991.246 485.166 992.308 485.166C993.388 485.166 994.306 485.472 995.062 486.102C995.836 486.714 996.214 487.596 996.214 488.73C996.214 489.918 995.692 490.836 994.666 491.484ZM992.308 486.768C991.03 486.768 990.076 487.452 990.076 488.766C990.076 490.044 991.066 490.782 992.308 490.782C993.55 490.782 994.54 490.044 994.54 488.766C994.54 487.452 993.604 486.768 992.308 486.768ZM992.308 496.632C993.91 496.632 994.972 495.858 994.972 494.436C994.972 493.05 993.91 492.258 992.308 492.258C990.724 492.258 989.662 493.05 989.662 494.436C989.662 495.858 990.724 496.632 992.308 496.632ZM1006.56 496.452C1005.71 497.64 1004.51 498.234 1002.98 498.234C1001.45 498.234 1000.24 497.64 999.395 496.452C998.549 495.264 998.117 493.68 998.117 491.7C998.117 489.72 998.549 488.136 999.395 486.948C1000.24 485.76 1001.45 485.166 1002.98 485.166C1004.51 485.166 1005.71 485.76 1006.56 486.948C1007.4 488.136 1007.84 489.72 1007.84 491.7C1007.84 493.68 1007.4 495.264 1006.56 496.452ZM999.791 491.7C999.791 494.814 1000.94 496.596 1002.98 496.596C1005.01 496.596 1006.18 494.814 1006.18 491.7C1006.18 488.586 1005.01 486.786 1002.98 486.786C1000.94 486.786 999.791 488.55 999.791 491.7ZM1015.99 491.484C1017.21 492.114 1017.95 493.194 1017.95 494.544C1017.95 495.696 1017.55 496.596 1016.74 497.262C1015.93 497.91 1014.91 498.234 1013.63 498.234C1012.37 498.234 1011.34 497.91 1010.53 497.262C1009.72 496.596 1009.33 495.696 1009.33 494.544C1009.33 493.194 1010.07 492.114 1011.29 491.484C1010.26 490.836 1009.74 489.918 1009.74 488.73C1009.74 487.596 1010.12 486.714 1010.88 486.102C1011.65 485.472 1012.57 485.166 1013.63 485.166C1014.71 485.166 1015.63 485.472 1016.38 486.102C1017.16 486.714 1017.54 487.596 1017.54 488.73C1017.54 489.918 1017.01 490.836 1015.99 491.484ZM1013.63 486.768C1012.35 486.768 1011.4 487.452 1011.4 488.766C1011.4 490.044 1012.39 490.782 1013.63 490.782C1014.87 490.782 1015.86 490.044 1015.86 488.766C1015.86 487.452 1014.93 486.768 1013.63 486.768ZM1013.63 496.632C1015.23 496.632 1016.29 495.858 1016.29 494.436C1016.29 493.05 1015.23 492.258 1013.63 492.258C1012.05 492.258 1010.98 493.05 1010.98 494.436C1010.98 495.858 1012.05 496.632 1013.63 496.632ZM1027.81 489.396C1027.81 490.368 1027.56 491.214 1027.03 491.934H1027.05L1022.98 498H1021.09L1024.08 493.59C1023.81 493.608 1023.61 493.626 1023.47 493.626C1022.19 493.626 1021.15 493.23 1020.34 492.456C1019.53 491.664 1019.13 490.638 1019.13 489.396C1019.13 488.154 1019.53 487.128 1020.34 486.354C1021.15 485.562 1022.19 485.166 1023.47 485.166C1024.75 485.166 1025.77 485.562 1026.58 486.354C1027.39 487.128 1027.81 488.154 1027.81 489.396ZM1023.47 486.768C1021.89 486.768 1020.79 487.812 1020.79 489.396C1020.79 490.98 1021.89 492.042 1023.47 492.042C1025.05 492.042 1026.15 490.98 1026.15 489.396C1026.15 487.812 1025.07 486.768 1023.47 486.768Z" fill="black"/>
<path d="M1128.27 498.234C1126.36 498.234 1124.78 497.604 1123.54 496.344C1122.3 495.084 1121.68 493.536 1121.68 491.7C1121.68 489.864 1122.3 488.316 1123.54 487.056C1124.78 485.796 1126.36 485.166 1128.27 485.166C1130.58 485.166 1132.63 486.354 1133.71 488.226L1132.25 489.072C1131.53 487.686 1130 486.786 1128.27 486.786C1126.81 486.786 1125.63 487.254 1124.71 488.19C1123.79 489.126 1123.34 490.296 1123.34 491.7C1123.34 493.086 1123.79 494.256 1124.71 495.192C1125.63 496.128 1126.81 496.596 1128.27 496.596C1130 496.596 1131.53 495.696 1132.25 494.328L1133.71 495.156C1133.19 496.092 1132.43 496.848 1131.46 497.406C1130.49 497.964 1129.42 498.234 1128.27 498.234ZM1142.84 494.04H1144.37V495.606H1142.84V498H1141.16V495.606H1134.74V494.04L1139.26 485.4H1141.06L1136.54 494.04H1141.16V490.476H1142.84V494.04ZM1152.02 498.234C1150.11 498.234 1148.53 497.604 1147.29 496.344C1146.04 495.084 1145.43 493.536 1145.43 491.7C1145.43 489.864 1146.04 488.316 1147.29 487.056C1148.53 485.796 1150.11 485.166 1152.02 485.166C1154.32 485.166 1156.38 486.354 1157.46 488.226L1156 489.072C1155.28 487.686 1153.75 486.786 1152.02 486.786C1150.56 486.786 1149.37 487.254 1148.46 488.19C1147.54 489.126 1147.09 490.296 1147.09 491.7C1147.09 493.086 1147.54 494.256 1148.46 495.192C1149.37 496.128 1150.56 496.596 1152.02 496.596C1153.75 496.596 1155.28 495.696 1156 494.328L1157.46 495.156C1156.93 496.092 1156.18 496.848 1155.21 497.406C1154.23 497.964 1153.17 498.234 1152.02 498.234ZM1166.59 494.04H1168.12V495.606H1166.59V498H1164.91V495.606H1158.49V494.04L1163 485.4H1164.8L1160.29 494.04H1164.91V490.476H1166.59V494.04ZM1175.77 498.234C1173.86 498.234 1172.28 497.604 1171.03 496.344C1169.79 495.084 1169.18 493.536 1169.18 491.7C1169.18 489.864 1169.79 488.316 1171.03 487.056C1172.28 485.796 1173.86 485.166 1175.77 485.166C1178.07 485.166 1180.12 486.354 1181.2 488.226L1179.75 489.072C1179.03 487.686 1177.5 486.786 1175.77 486.786C1174.31 486.786 1173.12 487.254 1172.2 488.19C1171.29 489.126 1170.84 490.296 1170.84 491.7C1170.84 493.086 1171.29 494.256 1172.2 495.192C1173.12 496.128 1174.31 496.596 1175.77 496.596C1177.5 496.596 1179.03 495.696 1179.75 494.328L1181.2 495.156C1180.68 496.092 1179.93 496.848 1178.95 497.406C1177.98 497.964 1176.92 498.234 1175.77 498.234ZM1190.35 485.4V486.984H1184.77V491.07H1190.12V492.654H1184.77V498H1183.1V485.4H1190.35Z" fill="black"/>
<path d="M1274.35 485.4H1279.26C1280.97 485.4 1282.4 486.012 1283.53 487.236C1284.66 488.442 1285.24 489.936 1285.24 491.7C1285.24 493.464 1284.66 494.958 1283.53 496.182C1282.4 497.388 1280.97 498 1279.26 498H1274.35V485.4ZM1276.02 496.416H1279.26C1280.54 496.416 1281.6 495.966 1282.41 495.066C1283.22 494.166 1283.64 493.05 1283.64 491.7C1283.64 490.35 1283.22 489.234 1282.41 488.334C1281.6 487.434 1280.54 486.984 1279.26 486.984H1276.02V496.416ZM1287.27 485.4H1292.18C1293.89 485.4 1295.32 486.012 1296.45 487.236C1297.58 488.442 1298.16 489.936 1298.16 491.7C1298.16 493.464 1297.58 494.958 1296.45 496.182C1295.32 497.388 1293.89 498 1292.18 498H1287.27V485.4ZM1288.94 496.416H1292.18C1293.46 496.416 1294.52 495.966 1295.33 495.066C1296.14 494.166 1296.56 493.05 1296.56 491.7C1296.56 490.35 1296.14 489.234 1295.33 488.334C1294.52 487.434 1293.46 486.984 1292.18 486.984H1288.94V496.416ZM1300.19 485.4H1305.1C1306.81 485.4 1308.24 486.012 1309.37 487.236C1310.5 488.442 1311.08 489.936 1311.08 491.7C1311.08 493.464 1310.5 494.958 1309.37 496.182C1308.24 497.388 1306.81 498 1305.1 498H1300.19V485.4ZM1301.86 496.416H1305.1C1306.38 496.416 1307.44 495.966 1308.25 495.066C1309.06 494.166 1309.48 493.05 1309.48 491.7C1309.48 490.35 1309.06 489.234 1308.25 488.334C1307.44 487.434 1306.38 486.984 1305.1 486.984H1301.86V496.416ZM1313.11 485.4H1318.02C1319.73 485.4 1321.16 486.012 1322.29 487.236C1323.42 488.442 1324 489.936 1324 491.7C1324 493.464 1323.42 494.958 1322.29 496.182C1321.16 497.388 1319.73 498 1318.02 498H1313.11V485.4ZM1314.78 496.416H1318.02C1319.3 496.416 1320.36 495.966 1321.17 495.066C1321.98 494.166 1322.4 493.05 1322.4 491.7C1322.4 490.35 1321.98 489.234 1321.17 488.334C1320.36 487.434 1319.3 486.984 1318.02 486.984H1314.78V496.416ZM1327.7 492.42V496.416H1333.55V498H1326.03V485.4H1333.46V486.984H1327.7V490.854H1333.01V492.42H1327.7ZM1342.65 486.876L1339.91 490.566C1341.84 490.926 1343.19 492.276 1343.19 494.274C1343.19 495.498 1342.77 496.47 1341.93 497.172C1341.08 497.874 1340.07 498.234 1338.87 498.234C1336.94 498.234 1335.36 497.334 1334.73 495.678L1336.13 494.85C1336.51 496.02 1337.41 496.596 1338.87 496.596C1340.43 496.596 1341.51 495.732 1341.51 494.274C1341.51 492.816 1340.43 491.934 1338.87 491.934H1338.44L1337.77 490.908L1340.69 486.966H1335.09V485.4H1342.65V486.876Z" fill="black"/>
<path d="M1430.02 492.42V496.416H1435.87V498H1428.35V485.4H1435.78V486.984H1430.02V490.854H1435.33V492.42H1430.02ZM1445.09 491.466C1446.25 492.024 1446.98 493.086 1446.98 494.436C1446.98 495.444 1446.62 496.29 1445.92 496.974C1445.22 497.658 1444.36 498 1443.33 498H1437.89V485.4H1442.93C1443.92 485.4 1444.75 485.724 1445.44 486.39C1446.12 487.056 1446.46 487.866 1446.46 488.838C1446.46 489.954 1446.01 490.836 1445.09 491.466ZM1442.93 486.966H1439.57V490.818H1442.93C1444 490.818 1444.81 489.972 1444.81 488.892C1444.81 488.37 1444.63 487.92 1444.25 487.542C1443.89 487.164 1443.46 486.966 1442.93 486.966ZM1439.57 496.434H1443.33C1444.46 496.434 1445.33 495.534 1445.33 494.382C1445.33 493.824 1445.13 493.338 1444.73 492.942C1444.36 492.546 1443.89 492.348 1443.33 492.348H1439.57V496.434ZM1450.64 492.42V496.416H1456.49V498H1448.97V485.4H1456.4V486.984H1450.64V490.854H1455.95V492.42H1450.64ZM1465.71 491.466C1466.87 492.024 1467.6 493.086 1467.6 494.436C1467.6 495.444 1467.24 496.29 1466.54 496.974C1465.84 497.658 1464.98 498 1463.95 498H1458.51V485.4H1463.55C1464.54 485.4 1465.37 485.724 1466.06 486.39C1466.74 487.056 1467.08 487.866 1467.08 488.838C1467.08 489.954 1466.63 490.836 1465.71 491.466ZM1463.55 486.966H1460.19V490.818H1463.55C1464.62 490.818 1465.43 489.972 1465.43 488.892C1465.43 488.37 1465.25 487.92 1464.87 487.542C1464.51 487.164 1464.08 486.966 1463.55 486.966ZM1460.19 496.434H1463.95C1465.08 496.434 1465.95 495.534 1465.95 494.382C1465.95 493.824 1465.75 493.338 1465.35 492.942C1464.98 492.546 1464.51 492.348 1463.95 492.348H1460.19V496.434ZM1476.84 485.4V486.984H1471.26V491.07H1476.61V492.654H1471.26V498H1469.59V485.4H1476.84ZM1486.77 496.452C1485.93 497.64 1484.72 498.234 1483.19 498.234C1481.66 498.234 1480.45 497.64 1479.61 496.452C1478.76 495.264 1478.33 493.68 1478.33 491.7C1478.33 489.72 1478.76 488.136 1479.61 486.948C1480.45 485.76 1481.66 485.166 1483.19 485.166C1484.72 485.166 1485.93 485.76 1486.77 486.948C1487.62 488.136 1488.05 489.72 1488.05 491.7C1488.05 493.68 1487.62 495.264 1486.77 496.452ZM1480 491.7C1480 494.814 1481.16 496.596 1483.19 496.596C1485.22 496.596 1486.39 494.814 1486.39 491.7C1486.39 488.586 1485.22 486.786 1483.19 486.786C1481.16 486.786 1480 488.55 1480 491.7Z" fill="black"/>
<path d="M1590.6 485.4V486.984H1585.02V491.07H1590.37V492.654H1585.02V498H1583.35V485.4H1590.6ZM1599.89 485.4V486.984H1594.31V491.07H1599.65V492.654H1594.31V498H1592.63V485.4H1599.89ZM1609.17 485.4V486.984H1603.59V491.07H1608.93V492.654H1603.59V498H1601.91V485.4H1609.17ZM1618.45 485.4V486.984H1612.87V491.07H1618.21V492.654H1612.87V498H1611.19V485.4H1618.45ZM1627.73 485.4V486.984H1622.15V491.07H1627.5V492.654H1622.15V498H1620.48V485.4H1627.73ZM1637.01 485.4V486.984H1631.43V491.07H1636.78V492.654H1631.43V498H1629.76V485.4H1637.01Z" fill="black"/>
<rect x="196" y="337" width="136" height="136" fill="#1A94FF"/>
<rect x="811" y="337" width="136" height="136" fill="black"/>
<rect x="965" y="337" width="136" height="136" fill="#808089"/>
<rect x="1119" y="337" width="136" height="136" fill="#C4C4CF"/>
<rect x="1273" y="337" width="136" height="136" fill="#DDDDE3"/>
<rect x="1427" y="337" width="136" height="136" fill="#EBEBF0"/>
<rect x="1582.5" y="337.5" width="135" height="135" fill="white" stroke="#FAECEC"/>
<path d="M52.252 826.452C51.406 827.64 50.2 828.234 48.67 828.234C47.14 828.234 45.934 827.64 45.088 826.452C44.242 825.264 43.81 823.68 43.81 821.7C43.81 819.72 44.242 818.136 45.088 816.948C45.934 815.76 47.14 815.166 48.67 815.166C50.2 815.166 51.406 815.76 52.252 816.948C53.098 818.136 53.53 819.72 53.53 821.7C53.53 823.68 53.098 825.264 52.252 826.452ZM45.484 821.7C45.484 824.814 46.636 826.596 48.67 826.596C50.704 826.596 51.874 824.814 51.874 821.7C51.874 818.586 50.704 816.786 48.67 816.786C46.636 816.786 45.484 818.55 45.484 821.7ZM63.5899 826.452C62.7439 827.64 61.5379 828.234 60.0079 828.234C58.4779 828.234 57.2719 827.64 56.4259 826.452C55.5799 825.264 55.1479 823.68 55.1479 821.7C55.1479 819.72 55.5799 818.136 56.4259 816.948C57.2719 815.76 58.4779 815.166 60.0079 815.166C61.5379 815.166 62.7439 815.76 63.5899 816.948C64.4359 818.136 64.8679 819.72 64.8679 821.7C64.8679 823.68 64.4359 825.264 63.5899 826.452ZM56.8219 821.7C56.8219 824.814 57.9739 826.596 60.0079 826.596C62.0419 826.596 63.2119 824.814 63.2119 821.7C63.2119 818.586 62.0419 816.786 60.0079 816.786C57.9739 816.786 56.8219 818.55 56.8219 821.7ZM76.5609 828H74.7789L73.7529 825.174H68.0829L67.0569 828H65.2749L69.9729 815.4H71.8629L76.5609 828ZM70.9089 817.398L68.6589 823.608H73.1769L70.9089 817.398ZM85.2473 821.466C86.3993 822.024 87.1373 823.086 87.1373 824.436C87.1373 825.444 86.7773 826.29 86.0753 826.974C85.3733 827.658 84.5093 828 83.4833 828H78.0473V815.4H83.0873C84.0773 815.4 84.9053 815.724 85.5893 816.39C86.2733 817.056 86.6153 817.866 86.6153 818.838C86.6153 819.954 86.1653 820.836 85.2473 821.466ZM83.0873 816.966H79.7213V820.818H83.0873C84.1493 820.818 84.9593 819.972 84.9593 818.892C84.9593 818.37 84.7793 817.92 84.4013 817.542C84.0413 817.164 83.6093 816.966 83.0873 816.966ZM79.7213 826.434H83.4833C84.6173 826.434 85.4813 825.534 85.4813 824.382C85.4813 823.824 85.2833 823.338 84.8873 822.942C84.5093 822.546 84.0413 822.348 83.4833 822.348H79.7213V826.434ZM90.7955 820.314H92.6315C93.8195 820.314 94.8275 820.674 95.6375 821.376C96.4655 822.078 96.8795 823.032 96.8795 824.274C96.8795 825.498 96.4655 826.47 95.6195 827.172C94.7735 827.874 93.7655 828.234 92.5595 828.234C90.6335 828.234 88.9955 827.28 88.4015 825.534L89.8235 824.724C90.1655 825.948 91.1735 826.596 92.5595 826.596C94.1435 826.596 95.2235 825.732 95.2235 824.274C95.2235 822.816 94.1255 821.934 92.5955 821.934H89.0315L89.4995 815.4H96.3935V816.966H91.0115L90.7955 820.314ZM102.387 819.756C103.647 819.756 104.691 820.152 105.501 820.944C106.311 821.718 106.725 822.744 106.725 823.986C106.725 825.228 106.311 826.254 105.501 827.046C104.691 827.838 103.647 828.234 102.387 828.234C101.109 828.234 100.065 827.838 99.2549 827.046C98.4449 826.254 98.0489 825.228 98.0489 823.986C98.0489 823.014 98.3009 822.168 98.8049 821.466L102.855 815.4H104.763L101.793 819.792C102.063 819.774 102.261 819.756 102.387 819.756ZM102.387 821.358C100.785 821.358 99.7049 822.402 99.7049 823.986C99.7049 825.57 100.803 826.632 102.387 826.632C103.971 826.632 105.069 825.57 105.069 823.986C105.069 822.402 103.971 821.358 102.387 821.358Z" fill="black"/>
<rect x="42" y="667" width="136" height="136" fill="#00AB56"/>
<path d="M207.604 815.4V816.984H202.024V821.07H207.37V822.654H202.024V828H200.35V815.4H207.604ZM216.885 815.4V816.984H211.305V821.07H216.651V822.654H211.305V828H209.631V815.4H216.885ZM225.919 824.04H227.449V825.606H225.919V828H224.245V825.606H217.819V824.04L222.337 815.4H224.137L219.619 824.04H224.245V820.476H225.919V824.04ZM236.524 828H228.388V826.632L232.834 822.096C234.022 820.908 234.616 819.882 234.616 819.036C234.616 817.614 233.626 816.786 232.384 816.786C231.196 816.786 230.332 817.344 229.792 818.478L228.388 817.65C229.18 816.012 230.656 815.166 232.366 815.166C233.428 815.166 234.346 815.508 235.12 816.21C235.894 816.912 236.29 817.848 236.29 819.018C236.29 820.296 235.534 821.682 234.04 823.176L230.818 826.38H236.524V828ZM245.448 824.04H246.978V825.606H245.448V828H243.774V825.606H237.348V824.04L241.866 815.4H243.666L239.148 824.04H243.774V820.476H245.448V824.04ZM250.381 822.42V826.416H256.231V828H248.707V815.4H256.141V816.984H250.381V820.854H255.691V822.42H250.381Z" fill="black"/>
<rect x="197" y="667" width="136" height="136" fill="#FF424E"/>
<path d="M360.55 821.466C361.702 822.024 362.44 823.086 362.44 824.436C362.44 825.444 362.08 826.29 361.378 826.974C360.676 827.658 359.812 828 358.786 828H353.35V815.4H358.39C359.38 815.4 360.208 815.724 360.892 816.39C361.576 817.056 361.918 817.866 361.918 818.838C361.918 819.954 361.468 820.836 360.55 821.466ZM358.39 816.966H355.024V820.818H358.39C359.452 820.818 360.262 819.972 360.262 818.892C360.262 818.37 360.082 817.92 359.704 817.542C359.344 817.164 358.912 816.966 358.39 816.966ZM355.024 826.434H358.786C359.92 826.434 360.784 825.534 360.784 824.382C360.784 823.824 360.586 823.338 360.19 822.942C359.812 822.546 359.344 822.348 358.786 822.348H355.024V826.434ZM371.678 815.4V816.984H366.098V821.07H371.444V822.654H366.098V828H364.424V815.4H371.678ZM380.959 815.4V816.984H375.379V821.07H380.725V822.654H375.379V828H373.705V815.4H380.959ZM390.241 815.4V816.984H384.661V821.07H390.007V822.654H384.661V828H382.987V815.4H390.241ZM392.268 815.4H397.182C398.892 815.4 400.314 816.012 401.448 817.236C402.582 818.442 403.158 819.936 403.158 821.7C403.158 823.464 402.582 824.958 401.448 826.182C400.314 827.388 398.892 828 397.182 828H392.268V815.4ZM393.942 826.416H397.182C398.46 826.416 399.522 825.966 400.332 825.066C401.142 824.166 401.556 823.05 401.556 821.7C401.556 820.35 401.142 819.234 400.332 818.334C399.522 817.434 398.46 816.984 397.182 816.984H393.942V826.416ZM411.91 816.876L409.174 820.566C411.1 820.926 412.45 822.276 412.45 824.274C412.45 825.498 412.036 826.47 411.19 827.172C410.344 827.874 409.336 828.234 408.13 828.234C406.204 828.234 404.62 827.334 403.99 825.678L405.394 824.85C405.772 826.02 406.672 826.596 408.13 826.596C409.696 826.596 410.776 825.732 410.776 824.274C410.776 822.816 409.696 821.934 408.13 821.934H407.698L407.032 820.908L409.948 816.966H404.35V815.4H411.91V816.876Z" fill="black"/>
<rect x="352" y="667" width="136" height="136" fill="#BFFFD3"/>
<path d="M515.604 815.4V816.984H510.024V821.07H515.37V822.654H510.024V828H508.35V815.4H515.604ZM524.885 815.4V816.984H519.305V821.07H524.651V822.654H519.305V828H517.631V815.4H524.885ZM536.43 828H534.648L533.622 825.174H527.952L526.926 828H525.144L529.842 815.4H531.732L536.43 828ZM530.778 817.398L528.528 823.608H533.046L530.778 817.398ZM545.116 821.466C546.268 822.024 547.006 823.086 547.006 824.436C547.006 825.444 546.646 826.29 545.944 826.974C545.242 827.658 544.378 828 543.352 828H537.916V815.4H542.956C543.946 815.4 544.774 815.724 545.458 816.39C546.142 817.056 546.484 817.866 546.484 818.838C546.484 819.954 546.034 820.836 545.116 821.466ZM542.956 816.966H539.59V820.818H542.956C544.018 820.818 544.828 819.972 544.828 818.892C544.828 818.37 544.648 817.92 544.27 817.542C543.91 817.164 543.478 816.966 542.956 816.966ZM539.59 826.434H543.352C544.486 826.434 545.35 825.534 545.35 824.382C545.35 823.824 545.152 823.338 544.756 822.942C544.378 822.546 543.91 822.348 543.352 822.348H539.59V826.434ZM556.191 821.466C557.343 822.024 558.081 823.086 558.081 824.436C558.081 825.444 557.721 826.29 557.019 826.974C556.317 827.658 555.453 828 554.427 828H548.991V815.4H554.031C555.021 815.4 555.849 815.724 556.533 816.39C557.217 817.056 557.559 817.866 557.559 818.838C557.559 819.954 557.109 820.836 556.191 821.466ZM554.031 816.966H550.665V820.818H554.031C555.093 820.818 555.903 819.972 555.903 818.892C555.903 818.37 555.723 817.92 555.345 817.542C554.985 817.164 554.553 816.966 554.031 816.966ZM550.665 826.434H554.427C555.561 826.434 556.425 825.534 556.425 824.382C556.425 823.824 556.227 823.338 555.831 822.942C555.453 822.546 554.985 822.348 554.427 822.348H550.665V826.434ZM558.334 816.552L561.646 815.4H563.086V828H561.43V817.2L558.748 817.992L558.334 816.552Z" fill="black"/>
<rect x="507" y="667" width="136" height="136" fill="#FFABB1"/>
<path d="M111.28 143.787C121.567 149.183 127.806 158.964 127.806 171.274C127.806 180.886 124.434 188.98 117.52 195.388C110.606 201.796 102.343 205 92.3937 205H41.8042V86.9579H88.6838C98.2958 86.9579 106.559 90.1619 113.135 96.4013C119.881 102.641 123.253 110.398 123.253 119.672C123.253 129.959 119.206 137.885 111.28 143.787ZM88.6838 105.17H61.1968V136.198H88.6838C97.284 136.198 103.861 129.453 103.861 120.684C103.861 111.915 97.284 105.17 88.6838 105.17ZM61.1968 186.788H92.3937C101.331 186.788 108.414 179.537 108.414 170.262C108.414 160.987 101.331 153.736 92.3937 153.736H61.1968V186.788ZM224.997 170.599H157.882C160.58 183.415 170.867 190.498 184.863 190.498C194.475 190.498 201.726 186.956 206.617 180.043L221.625 188.811C213.362 201.121 201.052 207.192 184.694 207.192C171.035 207.192 159.906 202.976 151.474 194.713C143.042 186.282 138.827 175.658 138.827 162.842C138.827 150.195 143.042 139.74 151.305 131.308C159.568 122.708 170.361 118.492 183.345 118.492C195.655 118.492 205.773 122.876 213.699 131.477C221.625 140.077 225.672 150.701 225.672 163.011C225.672 164.866 225.503 167.395 224.997 170.599ZM157.713 155.76H207.291C204.762 142.1 195.15 135.018 183.177 135.018C169.686 135.018 160.243 142.944 157.713 155.76ZM338.323 205H315.052L274.074 86.9579H295.322L326.688 181.56L358.222 86.9579H379.301L338.323 205ZM404.47 107.531C399.917 111.915 393.172 111.915 388.45 107.531C384.066 102.809 384.066 96.064 388.45 91.5109C393.003 86.9579 400.086 86.9579 404.639 91.5109C409.023 96.064 409.023 102.809 404.47 107.531ZM405.651 205H387.438V120.684H405.651V205ZM508.246 170.599H441.13C443.828 183.415 454.115 190.498 468.111 190.498C477.723 190.498 484.975 186.956 489.865 180.043L504.873 188.811C496.61 201.121 484.3 207.192 467.943 207.192C454.284 207.192 443.154 202.976 434.722 194.713C426.291 186.282 422.075 175.658 422.075 162.842C422.075 150.195 426.291 139.74 434.554 131.308C442.817 122.708 453.609 118.492 466.594 118.492C478.904 118.492 489.022 122.876 496.947 131.477C504.873 140.077 508.92 150.701 508.92 163.011C508.92 164.866 508.752 167.395 508.246 170.599ZM440.962 155.76H490.539C488.01 142.1 478.398 135.018 466.425 135.018C452.935 135.018 443.491 142.944 440.962 155.76ZM569.359 120.684V138.222H548.449V178.693C548.449 189.486 555.531 189.317 569.359 188.643V205C541.535 208.373 530.236 200.784 530.236 178.693V138.222H514.722V120.684H530.236V102.472L548.449 97.0758V120.684H569.359ZM631.05 118.492C650.443 118.492 663.428 131.645 663.428 153.23V205H645.215V155.085C645.215 142.438 637.964 135.524 626.329 135.524C613.513 135.524 604.912 143.449 604.912 159.807V205H586.7V120.684H604.912V131.477C610.477 122.876 619.078 118.492 631.05 118.492ZM749.816 132.657V120.684H768.028V205H749.816V192.859C742.902 202.471 733.121 207.192 720.305 207.192C708.67 207.192 698.889 202.976 690.626 194.376C682.363 185.776 678.316 175.152 678.316 162.842C678.316 150.363 682.363 139.908 690.626 131.308C698.889 122.708 708.67 118.492 720.305 118.492C733.121 118.492 742.902 123.214 749.816 132.657ZM704.117 182.235C709.176 187.294 715.584 189.823 723.172 189.823C730.76 189.823 737.168 187.294 742.227 182.235C747.286 177.007 749.816 170.599 749.816 162.842C749.816 155.085 747.286 148.677 742.227 143.618C737.168 138.391 730.76 135.861 723.172 135.861C715.584 135.861 709.176 138.391 704.117 143.618C699.058 148.677 696.528 155.085 696.528 162.842C696.528 170.599 699.058 177.007 704.117 182.235ZM881.329 118.492C900.384 118.492 913.2 131.814 913.2 152.724V205H894.988V153.905C894.988 142.269 888.748 135.524 878.63 135.524C867.332 135.524 860.25 142.944 860.25 157.783V205H842.037V153.905C842.037 142.269 836.304 135.524 826.186 135.524C815.225 135.524 807.468 143.112 807.468 157.783V205H789.256V120.684H807.468V130.802C812.864 122.539 820.958 118.492 831.582 118.492C842.375 118.492 850.3 122.876 855.528 131.814C861.093 122.876 869.693 118.492 881.329 118.492ZM976.03 86.9579H1019.54C1030.67 86.9579 1039.94 90.6678 1047.36 98.0876C1054.95 105.507 1058.66 114.782 1058.66 125.743C1058.66 136.704 1054.95 145.81 1047.36 153.399C1039.94 160.819 1030.67 164.528 1019.54 164.528H995.422V205H976.03V86.9579ZM995.422 146.316H1019.54C1031 146.316 1039.27 137.716 1039.27 125.743C1039.27 113.77 1031 105.17 1019.54 105.17H995.422V146.316ZM1090.88 120.684V134.849C1095.43 124.394 1104.2 119.167 1116.85 119.167V138.896C1109.94 138.391 1103.87 140.077 1098.64 143.955C1093.41 147.665 1090.88 153.905 1090.88 162.505V205H1072.67V120.684H1090.88ZM1170.1 207.192C1157.79 207.192 1147.17 202.976 1138.57 194.376C1129.97 185.776 1125.58 175.321 1125.58 162.842C1125.58 150.363 1129.97 139.908 1138.57 131.308C1147.17 122.708 1157.79 118.492 1170.1 118.492C1182.58 118.492 1193.04 122.708 1201.64 131.308C1210.24 139.908 1214.62 150.363 1214.62 162.842C1214.62 175.321 1210.24 185.776 1201.64 194.376C1193.04 202.976 1182.58 207.192 1170.1 207.192ZM1151.39 181.897C1156.44 186.956 1162.68 189.486 1170.1 189.486C1177.52 189.486 1183.76 186.956 1188.82 181.897C1193.88 176.839 1196.41 170.431 1196.41 162.842C1196.41 155.254 1193.88 148.846 1188.82 143.787C1183.76 138.728 1177.52 136.198 1170.1 136.198C1162.68 136.198 1156.44 138.728 1151.39 143.787C1146.33 148.846 1143.8 155.254 1143.8 162.842C1143.8 170.431 1146.33 176.839 1151.39 181.897Z" fill="black"/>
<path d="M56.6891 53H54.1377L50.2487 46.3614H46.1615V53H43.8578V35.6605H50.7936C52.2799 35.6605 53.5432 36.1807 54.6083 37.2458C55.6734 38.2862 56.1936 39.5495 56.1936 41.0357C56.1936 42.1504 55.8468 43.1908 55.178 44.1073C54.5092 45.0238 53.667 45.6926 52.6019 46.0642L56.6891 53ZM50.7936 37.8155H46.1615V44.2807H50.7936C51.6606 44.2807 52.3789 43.9587 52.9734 43.3394C53.5927 42.6954 53.89 41.9275 53.89 41.0357C53.89 40.144 53.5927 39.3761 52.9734 38.7568C52.3789 38.1376 51.6606 37.8155 50.7936 37.8155ZM70.6679 47.7981H60.2889C60.71 50.0027 62.4192 51.2908 64.7724 51.2908C66.4073 51.2908 67.5963 50.6963 68.3394 49.4826L70.1725 50.5229C68.9587 52.3807 67.1504 53.322 64.7229 53.322C62.766 53.322 61.1559 52.7028 59.9174 51.489C58.7036 50.2504 58.0843 48.6899 58.0843 46.8073C58.0843 44.9495 58.6788 43.389 59.8926 42.1504C61.1064 40.9119 62.6669 40.2926 64.5743 40.2926C66.3825 40.2926 67.8688 40.9366 69.0082 42.2247C70.1725 43.488 70.7422 45.0238 70.7422 46.8321C70.7422 47.1541 70.7174 47.4761 70.6679 47.7981ZM64.5743 42.3238C62.2706 42.3238 60.6605 43.7357 60.2889 45.9156H68.5624C68.1908 43.5623 66.5559 42.3238 64.5743 42.3238ZM83.4993 42.7449V40.6146H85.6296V52.4798C85.6296 54.3128 85.0103 55.7248 83.7718 56.7404C82.5333 57.756 81.047 58.2762 79.3131 58.2762C76.5387 58.2762 74.458 57.211 73.4424 55.2541L75.325 54.189C75.9938 55.5762 77.3562 56.2697 79.3626 56.2697C81.9388 56.2697 83.4993 54.833 83.4993 52.4798V50.7211C82.4094 52.3807 80.8488 53.1982 78.8424 53.1982C77.0837 53.1982 75.5727 52.5789 74.3589 51.3156C73.1451 50.0523 72.5259 48.5413 72.5259 46.733C72.5259 44.9247 73.1451 43.4137 74.3589 42.1752C75.5727 40.9119 77.0837 40.2926 78.8424 40.2926C80.8736 40.2926 82.4342 41.11 83.4993 42.7449ZM83.4993 46.733C83.4993 45.4945 83.0782 44.4541 82.236 43.6119C81.3938 42.7697 80.3534 42.3486 79.0901 42.3486C77.8268 42.3486 76.7864 42.7697 75.9442 43.6119C75.102 44.4541 74.6809 45.4945 74.6809 46.733C74.6809 47.9963 75.102 49.0367 75.9442 49.8789C76.7864 50.7211 77.8268 51.1422 79.0901 51.1422C80.3534 51.1422 81.3938 50.7211 82.236 49.8789C83.0782 49.0367 83.4993 47.9963 83.4993 46.733ZM97.4406 47.1789V40.6146H99.5956V53H97.4406V51.2165C96.5736 52.6284 95.236 53.322 93.4277 53.322C90.5296 53.322 88.6222 51.3651 88.6222 48.2192V40.6146H90.7773V48.0954C90.7773 50.1018 91.9415 51.266 93.8488 51.266C96.0039 51.266 97.4406 49.9532 97.4406 47.1789ZM105.032 53H102.877V34.9174H105.032V53ZM118.574 42.7449V40.6146H120.73V53H118.574V50.8697C117.509 52.5046 115.949 53.322 113.893 53.322C112.159 53.322 110.673 52.7028 109.459 51.4394C108.245 50.1761 107.626 48.6156 107.626 46.8073C107.626 44.9991 108.245 43.4633 109.459 42.2C110.673 40.9366 112.159 40.2926 113.893 40.2926C115.949 40.2926 117.509 41.11 118.574 42.7449ZM114.165 51.2413C115.429 51.2413 116.469 50.8202 117.311 49.978C118.153 49.111 118.574 48.0706 118.574 46.8073C118.574 45.544 118.153 44.5036 117.311 43.6614C116.469 42.7945 115.429 42.3734 114.165 42.3734C112.927 42.3734 111.886 42.7945 111.044 43.6614C110.202 44.5036 109.781 45.544 109.781 46.8073C109.781 48.0706 110.202 49.111 111.044 49.978C111.886 50.8202 112.927 51.2413 114.165 51.2413ZM126.15 40.6146V42.6954C126.868 41.1596 128.156 40.3917 130.014 40.3917V42.6458C128.949 42.5963 128.057 42.8688 127.289 43.488C126.521 44.1073 126.15 45.0734 126.15 46.4358V53H123.995V40.6146H126.15ZM147.579 46.4358H138.538V44.355H147.579V46.4358ZM163.077 53.322C159.832 53.322 157.43 51.7119 156.513 49.0615L158.495 47.922C159.163 50.0275 160.724 51.0679 163.127 51.0679C165.505 51.0679 166.793 50.0027 166.793 48.3926C166.793 47.5752 166.471 46.9559 165.852 46.5348C165.232 46.1137 164.167 45.6926 162.706 45.222L161.046 44.677C160.674 44.5284 160.179 44.3055 159.609 44.033C159.04 43.7357 158.619 43.4385 158.346 43.1412C157.776 42.522 157.256 41.5064 157.256 40.2431C157.256 38.7321 157.776 37.5431 158.841 36.6761C159.907 35.7843 161.195 35.3385 162.706 35.3385C165.455 35.3385 167.561 36.8495 168.576 39.1284L166.644 40.2431C165.901 38.4596 164.588 37.5678 162.706 37.5678C160.823 37.5678 159.56 38.5587 159.56 40.144C159.56 40.9119 159.832 41.4816 160.377 41.8779C160.922 42.2743 161.863 42.6954 163.201 43.1165L164.217 43.4385C164.415 43.5128 164.712 43.6119 165.133 43.7853C166 44.1073 166.198 44.2312 166.867 44.6027C167.561 44.9743 167.784 45.2468 168.205 45.7422C168.824 46.3614 169.072 47.2532 169.072 48.3431C169.072 49.8541 168.527 51.0679 167.412 51.9844C166.297 52.8761 164.861 53.322 163.077 53.322ZM183.467 47.7981H173.088C173.509 50.0027 175.218 51.2908 177.571 51.2908C179.206 51.2908 180.395 50.6963 181.138 49.4826L182.971 50.5229C181.757 52.3807 179.949 53.322 177.522 53.322C175.565 53.322 173.955 52.7028 172.716 51.489C171.502 50.2504 170.883 48.6899 170.883 46.8073C170.883 44.9495 171.478 43.389 172.691 42.1504C173.905 40.9119 175.466 40.2926 177.373 40.2926C179.181 40.2926 180.668 40.9366 181.807 42.2247C182.971 43.488 183.541 45.0238 183.541 46.8321C183.541 47.1541 183.516 47.4761 183.467 47.7981ZM177.373 42.3238C175.069 42.3238 173.459 43.7357 173.088 45.9156H181.361C180.99 43.5623 179.355 42.3238 177.373 42.3238ZM199.394 40.2926C202.169 40.2926 204.051 42.2247 204.051 45.2963V53H201.896V45.3706C201.896 43.4633 200.831 42.3486 199.172 42.3486C197.314 42.3486 196.125 43.5623 196.125 46.1137V53H193.97V45.3706C193.97 43.4633 192.954 42.3486 191.344 42.3486C189.536 42.3486 188.173 43.6119 188.173 46.1137V53H186.018V40.6146H188.173V42.2743C189.016 40.9614 190.254 40.2926 191.864 40.2926C193.524 40.2926 194.738 40.9862 195.505 42.3981C196.372 40.9862 197.66 40.2926 199.394 40.2926ZM208.129 39.0788C207.312 39.0788 206.668 38.4348 206.668 37.6421C206.668 36.8495 207.312 36.1807 208.129 36.1807C208.922 36.1807 209.566 36.8495 209.566 37.6421C209.566 38.4348 208.922 39.0788 208.129 39.0788ZM209.195 53H207.04V40.6146H209.195V53ZM225.512 40.2926C227.246 40.2926 228.732 40.9366 229.946 42.2C231.159 43.4633 231.779 44.9991 231.779 46.8073C231.779 48.6156 231.159 50.1761 229.946 51.4394C228.732 52.7028 227.246 53.322 225.512 53.322C223.456 53.322 221.895 52.5046 220.83 50.8697V53H218.675V35.6605H220.83V42.7449C221.895 41.11 223.456 40.2926 225.512 40.2926ZM225.239 51.2413C226.478 51.2413 227.518 50.8202 228.36 49.978C229.203 49.111 229.624 48.0706 229.624 46.8073C229.624 45.544 229.203 44.5036 228.36 43.6614C227.518 42.7945 226.478 42.3734 225.239 42.3734C223.976 42.3734 222.936 42.7945 222.093 43.6614C221.251 44.5036 220.83 45.544 220.83 46.8073C220.83 48.0706 221.251 49.111 222.093 49.978C222.936 50.8202 223.976 51.2413 225.239 51.2413ZM244.803 51.4394C243.54 52.7028 241.98 53.322 240.171 53.322C238.363 53.322 236.803 52.7028 235.539 51.4394C234.276 50.1761 233.657 48.6403 233.657 46.8073C233.657 44.9743 234.276 43.4385 235.539 42.1752C236.803 40.9119 238.363 40.2926 240.171 40.2926C241.98 40.2926 243.54 40.9119 244.803 42.1752C246.067 43.4385 246.711 44.9743 246.711 46.8073C246.711 48.6403 246.067 50.1761 244.803 51.4394ZM240.171 51.2165C241.41 51.2165 242.45 50.7954 243.292 49.9532C244.135 49.111 244.556 48.0706 244.556 46.8073C244.556 45.544 244.135 44.5036 243.292 43.6614C242.45 42.8192 241.41 42.3981 240.171 42.3981C238.958 42.3981 237.917 42.8192 237.075 43.6614C236.233 44.5036 235.812 45.544 235.812 46.8073C235.812 48.0706 236.233 49.111 237.075 49.9532C237.917 50.7954 238.958 51.2165 240.171 51.2165ZM251.406 53H249.251V34.9174H251.406V53ZM264.949 42.7449V35.6605H267.104V53H264.949V50.8697C263.884 52.5046 262.324 53.322 260.268 53.322C258.534 53.322 257.047 52.7028 255.834 51.4394C254.62 50.1761 254.001 48.6156 254.001 46.8073C254.001 44.9991 254.62 43.4633 255.834 42.2C257.047 40.9366 258.534 40.2926 260.268 40.2926C262.324 40.2926 263.884 41.11 264.949 42.7449ZM260.54 51.2413C261.803 51.2413 262.844 50.8202 263.686 49.978C264.528 49.111 264.949 48.0706 264.949 46.8073C264.949 45.544 264.528 44.5036 263.686 43.6614C262.844 42.7945 261.803 42.3734 260.54 42.3734C259.302 42.3734 258.261 42.7945 257.419 43.6614C256.577 44.5036 256.156 45.544 256.156 46.8073C256.156 48.0706 256.577 49.111 257.419 49.978C258.261 50.8202 259.302 51.2413 260.54 51.2413ZM285.826 46.4358H276.785V44.355H285.826V46.4358ZM305.634 44.0082C307.22 44.7761 308.235 46.2376 308.235 48.0954C308.235 49.4826 307.74 50.6468 306.774 51.5881C305.808 52.5294 304.619 53 303.207 53H295.726V35.6605H302.662C304.024 35.6605 305.164 36.1064 306.105 37.0229C307.046 37.9394 307.517 39.0541 307.517 40.3917C307.517 41.9275 306.898 43.1412 305.634 44.0082ZM302.662 37.8155H298.03V43.1165H302.662C304.123 43.1165 305.238 41.9522 305.238 40.466C305.238 39.7477 304.99 39.1284 304.47 38.6082C303.975 38.088 303.38 37.8155 302.662 37.8155ZM298.03 50.8449H303.207C304.767 50.8449 305.956 49.6064 305.956 48.0211C305.956 47.2532 305.684 46.5844 305.139 46.0394C304.619 45.4945 303.975 45.222 303.207 45.222H298.03V50.8449ZM321.196 51.4394C319.933 52.7028 318.372 53.322 316.564 53.322C314.756 53.322 313.195 52.7028 311.932 51.4394C310.668 50.1761 310.049 48.6403 310.049 46.8073C310.049 44.9743 310.668 43.4385 311.932 42.1752C313.195 40.9119 314.756 40.2926 316.564 40.2926C318.372 40.2926 319.933 40.9119 321.196 42.1752C322.459 43.4385 323.103 44.9743 323.103 46.8073C323.103 48.6403 322.459 50.1761 321.196 51.4394ZM316.564 51.2165C317.802 51.2165 318.843 50.7954 319.685 49.9532C320.527 49.111 320.948 48.0706 320.948 46.8073C320.948 45.544 320.527 44.5036 319.685 43.6614C318.843 42.8192 317.802 42.3981 316.564 42.3981C315.35 42.3981 314.31 42.8192 313.468 43.6614C312.625 44.5036 312.204 45.544 312.204 46.8073C312.204 48.0706 312.625 49.111 313.468 49.9532C314.31 50.7954 315.35 51.2165 316.564 51.2165ZM327.799 53H325.644V34.9174H327.799V53ZM341.342 42.7449V35.6605H343.497V53H341.342V50.8697C340.277 52.5046 338.716 53.322 336.66 53.322C334.926 53.322 333.44 52.7028 332.226 51.4394C331.012 50.1761 330.393 48.6156 330.393 46.8073C330.393 44.9991 331.012 43.4633 332.226 42.2C333.44 40.9366 334.926 40.2926 336.66 40.2926C338.716 40.2926 340.277 41.11 341.342 42.7449ZM336.933 51.2413C338.196 51.2413 339.236 50.8202 340.079 49.978C340.921 49.111 341.342 48.0706 341.342 46.8073C341.342 45.544 340.921 44.5036 340.079 43.6614C339.236 42.7945 338.196 42.3734 336.933 42.3734C335.694 42.3734 334.654 42.7945 333.812 43.6614C332.969 44.5036 332.548 45.544 332.548 46.8073C332.548 48.0706 332.969 49.111 333.812 49.978C334.654 50.8202 335.694 51.2413 336.933 51.2413Z" fill="black"/>
</svg>
